<svg id="Layer_1" data-name="Layer 1" xmlns="http://www.w3.org/2000/svg" viewBox="0 0 88 124"><defs><style>.cls-1{fill:none;stroke:#c2e0ec;stroke-linecap:round;stroke-linejoin:round;stroke-width:4px;}.cls-2{fill:#c2e0ec;}</style></defs><title>icon_drop</title><path class="cls-1" d="M93,83C93,51,53,3,53,3S13,51,13,83A40,40,0,0,0,93,83Z" transform="translate(-11 -1)"/><path class="cls-1" d="M25.33,92A40.16,40.16,0,0,0,43,111.21" transform="translate(-11 -1)"/><path class="cls-2" d="M81,20S63,41.6,63,56a18,18,0,0,0,36,0C99,41.6,81,20,81,20Zm1.48,47.67a2,2,0,0,1-2.55,1.22A20,20,0,0,1,69.27,60a2,2,0,0,1,3.46-2,16,16,0,0,0,8.53,7.09A2,2,0,0,1,82.48,67.67Z" transform="translate(-11 -1)"/></svg>
