<svg id="Layer_1" data-name="Layer 1" xmlns="http://www.w3.org/2000/svg" viewBox="0 0 84.03 156"><defs><style>.cls-1{fill:none;stroke:#c2e0ec;stroke-linejoin:round;stroke-width:4px;} .cls-2{fill:#c2e0ec;stroke:#c2e0ec;stroke-linejoin:round;stroke-width:4px;}</style></defs><title>icon_tube</title><path class="cls-2" d="M30.4,124L20.09,150.8A1.56,1.56,0,0,0,22,152H86a3.34,3.34,0,0,0,1.83-.32,1.43,1.43,0,0,0,.17-0.56L77.54,124S74,127,67,127s-13-8-22-8A23.35,23.35,0,0,0,30.4,124Z" transform="translate(-12 -4)"/><path class="cls-1" d="M78,58H74V98l20,52s1,8-8,8H22c-8,0-8-8-8-8L34,98V58H30" transform="translate(-12 -4)"/><line class="cls-1" x1="18" y1="46" x2="66" y2="46"/><circle class="cls-2" cx="37.5" cy="4.43" r="4.43"/><circle class="cls-2" cx="31.17" cy="34.83" r="3.17"/><circle class="cls-2" cx="50.17" cy="20.9" r="8.23"/><line class="cls-1" x1="56" y1="89" x2="45" y2="89"/><line class="cls-1" x1="56" y1="79" x2="45" y2="79"/><line class="cls-1" x1="56" y1="69" x2="45" y2="69"/><line class="cls-1" x1="56" y1="59" x2="45" y2="59"/></svg>
