<svg id="Layer_1" data-name="Layer 1" xmlns="http://www.w3.org/2000/svg" viewBox="0 0 160 171.94"><defs><style>.cls-1,.cls-2{fill:none;stroke:#c2e0ec;stroke-linejoin:bevel;}.cls-1{stroke-width:4px;}.cls-2{stroke-linecap:round;stroke-width:12px;}</style></defs><title>icon_bulb</title><polygon class="cls-1" points="60 134 100 134 96 138 96 162 88 166 88 168 80 170 72 168 72 166 64 162 64 138 60 134"/><polyline class="cls-1" points="70 141 72 141 88 144 90 144"/><polyline class="cls-1" points="70 148 72 148 88 151 90 151"/><polyline class="cls-1" points="70 155 72 155 88 158 90 158"/><polyline class="cls-2" points="52 76 57.6 76 102.4 67 108 67"/><line class="cls-2" x1="57.6" y1="54" x2="102.4" y2="45"/><line class="cls-2" x1="57.6" y1="120" x2="102.4" y2="111"/><polyline class="cls-2" points="52 98 57.6 98 102.4 89 108 89"/><line class="cls-1" x1="20" y1="80" y2="80"/><line class="cls-1" x1="140" y1="80" x2="160" y2="80"/><line class="cls-1" x1="80" y1="20" x2="80"/><line class="cls-1" x1="122.43" y1="37.57" x2="136.57" y2="23.43"/><line class="cls-1" x1="37.57" y1="37.57" x2="23.43" y2="23.43"/></svg>
